<svg xmlns="http://www.w3.org/2000/svg" width="512" height="512" viewBox="0 0 512 512" id="branding"><polyline fill="#ff9811" points="128 464 128 16 496 16 496 464 384 464"></polyline><polygon fill="#787680" points="384 272 384 296 200 392 16 296 16 272 88 234.43 312 234.43 384 272"></polygon><polyline fill="#ffeb99" points="88 495.57 88 112 312 112 312 495.57"></polyline><polygon fill="#e0e0e2" points="384 296 384 496 16 496 16 296 200 392 384 296"></polygon><rect width="80" height="80" x="384" y="48" fill="#ffda44"></rect><polygon fill="#4e901e" points="288 269.33 288 312 208 312 180 274.67 236 200 288 269.33"></polygon><polygon fill="#78b9eb" points="288 136 288 269.33 236 200 180 274.67 208 312 112 312 112 136 288 136"></polygon><circle cx="160" cy="192" r="24" fill="#ffda44"></circle><polygon fill="#91cc04" points="208 312 112 312 160 248 180 274.67 208 312"></polygon><g><path d="M112,320H288a8,8,0,0,0,8-8V136a8,8,0,0,0-8-8H112a8,8,0,0,0-8,8V312A8,8,0,0,0,112,320Zm80-16H128l32-42.667Zm20,0-22-29.332,46-61.335L280,272v32Zm68-160V245.332L242.4,195.2a8,8,0,0,0-12.8,0L180,261.334,166.4,243.2a8,8,0,0,0-12.8,0L120,288V144Z"></path><path d="M160,224a32,32,0,1,0-32-32A32.036,32.036,0,0,0,160,224Zm0-48a16,16,0,1,1-16,16A16.019,16.019,0,0,1,160,176Z"></path><path d="M496,8H128a8,8,0,0,0-8,8v88H88a8,8,0,0,0-8,8V229.58L12.3,264.91A8,8,0,0,0,8,272V496a8,8,0,0,0,8,8H384a8,8,0,0,0,8-8V472H496a8,8,0,0,0,8-8V16A8,8,0,0,0,496,8ZM96,120H304V328.72L200,382.98,96,328.72ZM24,276.85l56-29.22v72.74L24,291.15ZM24,488V309.2l91.58,47.78L35.51,488Zm30.26,0L129.8,364.4l66.5,34.69a7.977,7.977,0,0,0,7.4,0l66.5-34.69L345.74,488ZM376,488H364.49L284.42,356.98,376,309.2Zm0-196.85-56,29.22V247.63l56,29.22ZM488,456H392V272a8,8,0,0,0-4.3-7.09L320,229.58V112a8,8,0,0,0-8-8H136V24H488Z"></path><path d="M384,136h80a8,8,0,0,0,8-8V48a8,8,0,0,0-8-8H384a8,8,0,0,0-8,8v80A8,8,0,0,0,384,136Zm8-80h64v64H392Z"></path></g></svg>