<svg xmlns="http://www.w3.org/2000/svg" width="16" height="16" id="map"><path fill="#25b39e" d="M5.216 6.215 2 3v12h12l-4.03-4.029m1.147-1.853L15 13V2H4L6.33 4.33l.71.71c2.875-.29 2.875-.29 3.094 3.094z"></path><path fill="#f05542" d="M8.355 3.998c-1.854 0-3.356 1.516-3.356 3.385 0 1.869 3.356 5.615 3.356 5.615s3.355-3.746 3.355-5.615c0-1.869-1.502-3.385-3.355-3.385zm0 1.881a1.118 1.128 0 0 1 1.117 1.127 1.118 1.128 0 0 1-1.117 1.129 1.118 1.128 0 0 1-1.12-1.129 1.118 1.128 0 0 1 1.12-1.127z"></path></svg>