<svg xmlns="http://www.w3.org/2000/svg" data-name="Layer 1" viewBox="0 0 512 512" id="map"><g data-name="<Group>"><g data-name="<Group>"><path fill="#00acea" d="M374.87,88.51c31.94,32.97,47.91,76.41,47.91,120.02A175.381,175.381,0,0,1,373.1,331.38L254.23,472.97,137.13,333.13C72.67,266.57,73.26,157.4,138.9,90.26c33.11-34.16,76.45-51.23,119.55-51.23A161.324,161.324,0,0,1,374.87,88.51ZM334.82,199.99A78.82,78.82,0,1,0,256,278.82,78.821,78.821,0,0,0,334.82,199.99Z" data-name="<Group>"></path><path fill="#00efd1" d="M256,121.17a78.825,78.825,0,1,1-78.82,78.82A78.821,78.821,0,0,1,256,121.17Z" data-name="<Group>"></path></g><g data-name="<Group>"><path fill="#083863" d="M246.563,479.405a10.008,10.008,0,0,0,7.661,3.6h.006a10.015,10.015,0,0,0,7.659-3.585L380.519,338.1c33.7-34.611,52.261-80.611,52.261-129.57,0-48.116-18.015-93.213-50.726-126.979a170.753,170.753,0,0,0-123.6-52.524c-47.8,0-92.809,19.273-126.7,54.239-69.311,70.894-70.207,185.909-2.059,256.56ZM146.081,97.22C176.2,66.144,216.108,49.03,258.45,49.03A150.916,150.916,0,0,1,367.688,95.468c29.078,30.016,45.092,70.169,45.092,113.062,0,43.83-16.631,84.976-46.83,115.859-.177.18-.346.367-.509.561L254.24,457.406,144.8,326.71q-.232-.277-.484-.537C114.949,295.852,98.937,255.3,99.227,211.979A164.739,164.739,0,0,1,146.081,97.22Z" data-name="<Compound Path>"></path><path fill="#083863" d="M256,288.82a88.825,88.825,0,1,0-88.82-88.83A88.925,88.925,0,0,0,256,288.82Zm0-157.65a68.825,68.825,0,1,1-68.82,68.82A68.9,68.9,0,0,1,256,131.17Z" data-name="<Compound Path>"></path></g></g></svg>