<svg xmlns="http://www.w3.org/2000/svg" enable-background="new 0 0 16 16" viewBox="0 0 16 16" id="map"><path fill="none" stroke="#231f20" stroke-miterlimit="10" d="M4.2,7.1l0.1,0.2l0.2,0.3l2.9,4.7c0.2,0.4,0.8,0.6,1.2,0.3c0.1-0.1,0.2-0.2,0.3-0.3L11.8,7
	c0.2-0.4,0.4-1.2,0.4-1.6c-0.1-2.3-2-4.1-4.3-4.1C5.7,1.2,3.8,3,3.7,5.3C3.7,5.9,3.9,6.6,4.2,7.1z"></path><circle cx="8" cy="5" r="1.4" fill="none" stroke="#231f20" stroke-miterlimit="10"></circle><path fill="none" stroke="#231f20" stroke-miterlimit="10" d="M9.8,11c1.6,0.3,2.7,1,2.7,1.8c0,1.1-2,2-4.5,2s-4.5-0.9-4.5-2c0-0.8,1.2-1.6,2.8-1.8"></path></svg>