<svg xmlns="http://www.w3.org/2000/svg" viewBox="0 0 1010 1010" id="seo"><path fill="#545454" d="M1010 441.83L441.83 1010 0 568.214 568.17 0h252.32l189.375 189.375.135 252.456zM837.348 221.97c0-27.259-22.104-49.205-49.317-49.294-27.079-.023-49.227 22.058-49.092 49.158-.045 27.26 21.923 49.228 49.182 49.362 27.259-.135 49.227-22.102 49.227-49.226z"></path><g fill="#DAB466"><path d="M485.901 672.541c0-17.709-7.622-34.207-23-49.539-11.073-11.12-22.82-18.092-35.194-21.005-12.328-2.915-28.647-1.839-48.957 3.25-15.288 3.9-25.375 6.008-30.128 6.41-4.797.36-8.966-.045-12.508-1.277-3.542-1.188-6.905-3.34-10.088-6.523-5.11-5.112-7.8-10.715-8.07-16.79-.269-6.075 2.376-11.881 7.756-17.329 4.663-4.618 9.998-8.516 16.23-11.79 6.232-3.296 14.84-6.68 25.824-10.222l-18.74-37.301c-10.805 3.206-20.489 6.971-28.962 11.343-8.519 4.304-16.275 9.975-23.358 17.036-14.392 14.392-21.386 29.97-20.937 46.716.447 16.768 8.249 32.638 23.223 47.703 8.025 7.958 16.23 13.696 24.658 17.17 8.474 3.543 16.992 5.402 25.6 5.784 8.743.314 19.592-1.21 32.817-4.617 14.168-3.655 23.852-5.672 29.143-6.143 5.29-.448 9.997-.18 14.032.941 4.08 1.1 7.801 3.318 11.163 6.635 5.963 5.986 8.743 12.15 8.384 18.56-.358 6.436-3.721 12.779-9.998 19.101-5.29 5.245-12.15 9.997-20.578 14.301-8.474 4.26-19.816 8.406-34.118 12.464l33.49 33.491c17.934-4.35 34.208-13.787 48.734-28.29 15.737-15.76 23.582-32.459 23.582-50.079zM614.662 565.57l-29.77-29.77-49.45 49.518-43.802-43.869 45.999-45.999-29.545-29.544-46 46.043-37.346-37.346 49.542-49.428-29.546-29.524-78.323 78.325 170.007 169.918zM731.497 408.115c-3.945-26.272-19.996-53.485-48.151-81.596-28.2-28.245-55.324-44.294-81.462-48.24-26.093-4.012-49.585 4.439-70.478 25.375-20.891 20.893-29.454 44.386-25.779 70.5 3.767 26.094 19.772 53.33 48.063 81.574 28.289 28.245 55.547 44.43 81.819 48.375 26.271 3.946 49.81-4.483 70.657-25.33 20.802-20.848 29.275-44.385 25.331-70.658zm-78.37-51.378c38.2 38.198 45.776 68.797 22.82 91.773-11.475 11.522-24.926 15.31-40.26 11.477-15.332-3.878-32.548-15.243-51.556-34.252-18.966-18.965-30.398-36.203-34.21-51.692-3.854-15.468 0-28.963 11.434-40.395 22.91-22.91 53.486-15.199 91.773 23.089z"></path></g></svg>