<svg xmlns="http://www.w3.org/2000/svg" enable-background="new 0 0 50 50" viewBox="0 0 50 50" id="web-design"><path fill="#e5e8f9" d="M49,3.72043v42.55914c0,1.50243-1.21796,2.7204-2.7204,2.7204H3.7204
				C2.21796,48.99997,1,47.78201,1,46.27957V3.72043c0-1.50243,1.21796-2.7204,2.7204-2.7204h42.5592
				C47.78204,1.00003,49,2.21799,49,3.72043z"></path><path fill="#ff4848" d="M5.02341,17.35071v9.98793c0,0.43564,0.35315,0.78879,0.78879,0.78879h12.51464
				c0.43564,0,0.78879-0.35315,0.78879-0.78879v-9.98793c0-0.43564-0.35315-0.78879-0.78879-0.78879H5.8122
				C5.37656,16.56192,5.02341,16.91507,5.02341,17.35071z"></path><path fill="#96c" d="M49,3.71582v8.91203H21.35208l-4.02347-3.05421H6.36129v3.05421H1V3.71582
				c0-1.49873,1.21712-2.71579,2.71585-2.71579h42.56829C47.78288,1.00003,49,2.21709,49,3.71582z"></path><path fill="#ff4848" d="M43.97079,6.81394c0,0.99959-0.8128,1.81233-1.81233,1.81233c-1.00894,0-1.82168-0.81274-1.82168-1.81233
					s0.81274-1.81233,1.82168-1.81233C43.15799,5.00161,43.97079,5.81435,43.97079,6.81394z"></path><path fill="#fc3" d="M37.06005,6.81394c0,0.99959-0.8128,1.81233-1.81233,1.81233c-1.00894,0-1.82168-0.81274-1.82168-1.81233
					s0.81274-1.81233,1.82168-1.81233C36.24725,5.00161,37.06005,5.81435,37.06005,6.81394z"></path><path fill="#6cf" d="M30.14931,6.81394c0,0.99959-0.8128,1.81233-1.81233,1.81233c-1.00894,0-1.82168-0.81274-1.82168-1.81233
					s0.81274-1.81233,1.82168-1.81233C29.33651,5.00161,30.14931,5.81435,30.14931,6.81394z"></path><g><path fill="#c5ceea" d="M44.97668 36.61538H5.02356c-.33154 0-.6001-.26855-.6001-.6001s.26855-.6001.6001-.6001h39.95313c.33154 0 .6001.26855.6001.6001S45.30823 36.61538 44.97668 36.61538zM44.97668 32.14272H5.02356c-.33154 0-.6001-.26855-.6001-.6001s.26855-.6001.6001-.6001h39.95313c.33154 0 .6001.26855.6001.6001S45.30823 32.14272 44.97668 32.14272zM44.97668 23.1979H25.22083c-.33154 0-.6001-.26855-.6001-.6001s.26855-.6001.6001-.6001h19.75586c.33154 0 .6001.26855.6001.6001S45.30823 23.1979 44.97668 23.1979zM44.97668 27.67056H25.22083c-.33154 0-.6001-.26855-.6001-.6001s.26855-.6001.6001-.6001h19.75586c.33154 0 .6001.26855.6001.6001S45.30823 27.67056 44.97668 27.67056zM44.97668 18.72573H25.22083c-.33154 0-.6001-.26855-.6001-.6001s.26855-.6001.6001-.6001h19.75586c.33154 0 .6001.26855.6001.6001S45.30823 18.72573 44.97668 18.72573z"></path></g><g><path fill="#666" d="M13.94073,40.69854v3.77497c0,0.27776-0.22517,0.50293-0.50293,0.50293H6.53227
					c-0.27776,0-0.50293-0.22517-0.50293-0.50293v-3.77497c0-0.27776,0.22517-0.50293,0.50293-0.50293h6.90553
					C13.71556,40.1956,13.94073,40.42077,13.94073,40.69854z"></path><path fill="#69f" d="M28.95576,40.69854v3.77497c0,0.27776-0.22517,0.50293-0.50293,0.50293H21.5473
					c-0.27776,0-0.50293-0.22517-0.50293-0.50293v-3.77497c0-0.27776,0.22517-0.50293,0.50293-0.50293h6.90553
					C28.73059,40.1956,28.95576,40.42077,28.95576,40.69854z"></path><path fill="#f93" d="M43.97079,40.69854v3.77497c0,0.27776-0.22517,0.50293-0.50293,0.50293h-6.90553
					c-0.27776,0-0.50293-0.22517-0.50293-0.50293v-3.77497c0-0.27776,0.22517-0.50293,0.50293-0.50293h6.90553
					C43.74562,40.1956,43.97079,40.42077,43.97079,40.69854z"></path></g><g><path fill="#fff" d="M7.52209,2.81362H5.77307c-0.13818,0-0.25-0.11182-0.25-0.25s0.11182-0.25,0.25-0.25h1.74902
			c0.13818,0,0.25,0.11182,0.25,0.25S7.66028,2.81362,7.52209,2.81362z"></path></g><g><path fill="#fff" d="M21.80627,2.81362H9.31653c-0.13818,0-0.25-0.11182-0.25-0.25s0.11182-0.25,0.25-0.25h12.48975
			c0.13818,0,0.25,0.11182,0.25,0.25S21.94446,2.81362,21.80627,2.81362z"></path></g><g><path fill="#fff" d="M2.63049,18.38247c-0.13818,0-0.25-0.11182-0.25-0.25v-1.74902c0-0.13818,0.11182-0.25,0.25-0.25
			s0.25,0.11182,0.25,0.25v1.74902C2.88049,18.27065,2.76868,18.38247,2.63049,18.38247z"></path></g><g><path fill="#fff" d="M2.63049,32.66714c-0.13818,0-0.25-0.11182-0.25-0.25V19.92739c0-0.13818,0.11182-0.25,0.25-0.25
			s0.25,0.11182,0.25,0.25v12.48974C2.88049,32.55532,2.76868,32.66714,2.63049,32.66714z"></path></g></svg>